<svg width="500" height="500" viewBox="0 0 500 500" fill="none" xmlns="http://www.w3.org/2000/svg">
<path d="M210.383 162.873C158.268 167.764 139.78 210.158 132.488 246.819C125.197 283.48 134.694 321.741 151.039 355.456C158.537 370.92 167.553 385.978 171.12 402.746C174.688 419.515 171.589 438.989 158.255 450C185.222 447.601 206.409 426.361 221.624 404.309C251.545 360.76 268.196 309.698 269.615 257.141C270.346 227.91 265.329 196.496 244.998 175.188C236.157 165.924 231.514 162.381 210.583 162.695" fill="#69B953"/>
<path d="M144.605 177.146C144.405 143.573 160.871 111.106 185.314 87.7313C215.521 58.8203 260.16 42.7962 300.938 53.1672C341.716 63.5383 374.573 103.805 369.477 145.006C366.82 166.468 350.816 188.612 328.868 188.963C318.508 189.129 308.728 184.491 299.74 179.41C283.006 169.943 267.382 158.532 249.931 150.431C232.479 142.33 212.402 137.698 193.797 142.816C174.462 148.143 157.216 161.885 144.755 177.454" fill="#69B953"/>
</svg>
