<svg width="1372" height="400" viewBox="0 0 1372 400" fill="none" xmlns="http://www.w3.org/2000/svg">
<path d="M80.3832 112.873C28.2678 117.764 9.77974 160.158 2.48821 196.819C-4.80332 233.48 4.69379 271.741 21.0388 305.456C28.5365 320.92 37.5525 335.978 41.1202 352.746C44.6878 369.514 41.5888 388.989 28.2554 400C55.2221 397.601 76.4094 376.361 91.6235 354.309C121.545 310.76 138.196 259.698 139.615 207.141C140.346 177.91 135.329 146.496 114.998 125.188C106.157 115.924 101.514 112.381 80.5832 112.695" fill="#69B953"/>
<path d="M14.6049 127.146C14.4053 93.5725 30.8713 61.1061 55.3145 37.7313C85.5208 8.82026 130.16 -7.20381 170.938 3.16724C211.716 13.5383 244.573 53.8045 239.477 95.0058C236.82 116.468 220.816 138.612 198.868 138.963C188.508 139.129 178.728 134.491 169.74 129.41C153.006 119.943 137.382 108.532 119.931 100.431C102.479 92.33 82.4022 87.6981 63.7969 92.8159C44.4619 98.1429 27.2163 111.885 14.7546 127.454" fill="#69B953"/>
<path d="M1287.12 164.436L1302.56 145.56L1324.01 162.148L1307.14 181.882C1318.86 195.61 1324.3 208.194 1324.3 225.64C1324.3 250.522 1312 270.828 1286.83 280.552C1315.72 290.276 1324.01 309.724 1324.01 326.598C1324.01 364.922 1286.26 384.084 1248.51 384.084C1202.46 384.084 1173 360.632 1174.15 321.45H1203.6C1202.75 343.472 1225.05 355.198 1248.51 355.484C1270.24 355.484 1293.41 346.618 1293.41 326.598C1293.41 306.864 1275.39 295.996 1249.08 295.996C1203.32 295.996 1172.72 269.684 1172.72 225.64C1172.72 178.45 1210.75 154.712 1249.08 154.712C1260.8 154.712 1277.11 157.572 1287.12 164.436ZM1249.08 182.168C1225.05 182.168 1202.46 196.182 1202.46 225.64C1202.46 253.668 1223.62 268.826 1249.08 268.826C1275.1 268.826 1294.84 251.094 1294.84 225.64C1294.84 197.898 1273.39 182.168 1249.08 182.168Z" fill="#333333"/>
<path d="M1148.72 300H1118.97V224.496C1118.97 200.186 1105.24 183.884 1080.93 183.884C1057.48 183.884 1041.47 203.046 1041.47 226.212V300H1012.01V158.716H1038.89L1040.61 179.308C1054.05 164.15 1069.78 156.714 1088.08 156.714C1122.4 156.714 1148.72 181.024 1148.72 224.21V300Z" fill="#333333"/>
<path d="M958.55 181.31L959.408 159.002H988.008C988.008 205.906 988.008 253.096 988.008 300H959.98L958.55 277.12C949.112 295.138 927.376 303.718 909.93 303.718C868.746 304.004 837.572 277.406 837.572 229.358C837.572 182.168 869.89 155.856 910.502 155.856C930.522 155.856 949.684 165.294 958.55 181.31ZM912.79 182.74C887.622 182.74 867.03 200.472 867.03 229.358C867.03 258.53 887.622 276.262 912.79 276.262C973.708 276.262 973.708 182.74 912.79 182.74Z" fill="#333333"/>
<path d="M737.21 183.598C712.328 183.598 692.594 200.472 692.594 229.358C692.594 257.672 712.328 275.404 737.21 275.404C761.806 275.404 782.112 257.1 782.112 229.358C782.112 202.188 761.806 183.598 737.21 183.598ZM784.114 100.086H813.572V300H785.83L784.114 277.692C772.96 295.71 754.084 302.86 735.208 302.86C694.31 302.86 663.136 275.976 663.136 229.358C663.136 181.31 693.738 155.856 734.636 155.856C751.796 155.856 774.962 164.436 784.114 181.024V100.086Z" fill="#333333"/>
<path d="M639.136 300H609.392V224.496C609.392 200.186 595.664 183.884 571.354 183.884C547.902 183.884 531.886 203.046 531.886 226.212V300H502.428V158.716H529.312L531.028 179.308C544.47 164.15 560.2 156.714 578.504 156.714C612.824 156.714 639.136 181.024 639.136 224.21V300Z" fill="#333333"/>
<path d="M474.71 158.43V300H445.252V158.43H474.71ZM441.82 117.532C441.82 141.842 478.428 141.842 478.428 117.532C478.428 93.508 441.82 93.508 441.82 117.532Z" fill="#333333"/>
<path d="M312 159.002H339.456L341.458 177.592C351.754 159.574 367.77 155.856 382.928 155.856C396.656 155.856 409.812 160.718 417.82 167.868L404.378 193.608C397.228 187.888 390.364 185.028 379.496 185.028C359.19 185.028 341.458 197.612 341.458 223.638V300H312V159.002Z" fill="#333333"/>
</svg>
