<svg width="512" height="156" viewBox="0 0 512 156" fill="none" xmlns="http://www.w3.org/2000/svg">
<path d="M0 155.625H43.8046V48.1624H0V155.625ZM92.0842 91.8536H48.2796C48.2796 67.7176 67.8953 48.1586 92.0842 48.1586V91.8536ZM108.88 155.614H152.685V48.1624H108.88V155.614ZM261.441 155.614H217.636V91.8536C217.636 67.7176 237.248 48.1548 261.441 48.1548V155.614ZM206.158 70.008C206.158 83.5122 195.189 94.4539 181.655 94.4539C168.121 94.4539 157.152 83.5122 157.152 70.0118C157.152 56.5114 168.124 45.5697 181.655 45.5697C195.186 45.5697 206.158 56.5038 206.158 70.008ZM217.632 43.6988H261.437V0H217.632V43.6988Z" fill="#0375E5"/>
<path d="M304.865 64.2743L313.003 77.6113H308.238L300.396 64.2743H304.865ZM308.153 56.9551C308.153 55.3553 307.675 54.0805 306.721 53.1264C305.766 52.1723 304.246 51.6947 302.166 51.6947H295.419V62.1704H302.209C303.585 62.1704 304.71 61.9541 305.582 61.5186C306.454 61.083 307.099 60.4753 307.521 59.6893C307.943 58.9033 308.153 57.9922 308.153 56.9551ZM302.166 48.1611C304.499 48.1611 306.419 48.5608 307.922 49.3612C309.424 50.1616 310.55 51.2202 311.294 52.5381C312.038 53.856 312.412 55.3287 312.412 56.9561C312.41 58.0323 312.224 59.0999 311.863 60.1105C311.498 61.1466 310.908 62.0966 310.093 62.9513C309.278 63.806 308.217 64.4803 306.91 64.9712C305.603 65.4621 304.035 65.706 302.209 65.706H295.419V77.6113H291.203V48.1611H302.166Z" fill="#002873"/>
<path d="M320.467 66.5884H337.673V70.1219H320.467V66.5884ZM330.082 51.6947H328.606L319.329 77.6113H315.027L325.655 48.1611H332.951L343.577 77.6113H339.276L330.082 51.6947Z" fill="#002873"/>
<path d="M357.322 74.0765C361.033 74.0765 363.85 73.1019 365.777 71.1516C367.704 69.2014 368.665 66.4908 368.665 63.0115C368.665 59.478 367.702 56.7079 365.777 54.7033C363.852 52.6988 361.033 51.6945 357.322 51.6945H351.418V74.0755L357.322 74.0765ZM357.322 48.1619C360.527 48.1619 363.29 48.7645 365.609 49.9707C367.928 51.177 369.727 52.8884 371.007 55.102C372.287 57.3156 372.925 59.9555 372.925 63.0126C372.925 66.0419 372.285 68.6439 371.007 70.8165C369.729 72.9891 367.928 74.6657 365.609 75.8453C363.29 77.0249 360.527 77.6111 357.322 77.6111H347.202V48.1619H357.322ZM377.942 77.6111H382.158V48.1609H377.942V77.6111ZM402.063 74.2876C404.059 74.2876 405.851 73.8244 407.439 72.899C409.027 71.9736 410.286 70.6556 411.213 68.9452C412.14 67.2348 412.605 65.2139 412.605 62.8865C412.605 60.5305 412.142 58.5034 411.213 56.8073C410.284 55.1112 409.028 53.7984 407.439 52.872C405.85 51.9456 404.059 51.4854 402.063 51.4854C400.038 51.4854 398.225 51.9466 396.624 52.872C395.023 53.7974 393.763 55.1102 392.85 56.8073C391.937 58.5044 391.479 60.5294 391.479 62.8865C391.479 65.2139 391.937 67.2338 392.85 68.9452C393.763 70.6567 395.021 71.9746 396.624 72.899C398.227 73.8233 400.039 74.2876 402.063 74.2876ZM402.063 77.9052C399.981 77.9052 398.036 77.5414 396.223 76.8117C394.41 76.082 392.829 75.0511 391.479 73.7188C390.129 72.3866 389.076 70.8012 388.317 68.9647C387.558 67.1282 387.178 65.1011 387.178 62.8855C387.178 60.6698 387.556 58.6499 388.317 56.8268C389.051 55.0415 390.126 53.425 391.479 52.0726C392.829 50.725 394.41 49.6889 396.223 48.9593C398.036 48.2296 399.982 47.8647 402.063 47.8647C404.115 47.8647 406.04 48.2306 407.84 48.9593C409.602 49.6634 411.208 50.722 412.564 52.0726C413.917 53.425 414.992 55.0415 415.726 56.8268C416.486 58.6489 416.865 60.6698 416.865 62.8855C416.865 65.1011 416.487 67.1282 415.726 68.9647C414.965 70.8012 413.913 72.3866 412.564 73.7188C411.203 75.0586 409.598 76.1096 407.84 76.8117C406.04 77.5414 404.116 77.9052 402.063 77.9052ZM304.865 103.292L313.003 116.629H308.238L300.396 103.292H304.865ZM308.153 95.9727C308.153 94.373 307.675 93.0981 306.72 92.144C305.766 91.1899 304.246 90.7144 302.166 90.7144H295.419V101.188H302.209C303.585 101.188 304.71 100.972 305.582 100.536C306.454 100.101 307.099 99.4929 307.521 98.7069C307.942 97.9209 308.153 97.0108 308.153 95.9727ZM302.166 87.1788C304.499 87.1788 306.419 87.5784 307.922 88.3788C309.424 89.1792 310.55 90.2378 311.294 91.5557C312.038 92.8737 312.412 94.3463 312.412 95.9737C312.41 97.0499 312.224 98.1175 311.863 99.1281C311.498 100.164 310.908 101.114 310.093 101.969C309.278 102.824 308.217 103.498 306.91 103.989C305.603 104.48 304.035 104.725 302.209 104.725H295.419V116.63H291.203V87.1777L302.166 87.1788ZM337.756 90.7123H322.237V99.9254H333.876V103.461H322.237V113.094H337.756V116.628H318.021V87.1788H337.756V90.7123ZM354.581 101.188C355.959 101.188 357.091 100.972 357.975 100.536C358.859 100.101 359.515 99.4909 359.936 98.7069C360.357 97.9229 360.569 97.0098 360.569 95.9717C360.569 94.3176 360.091 93.0264 359.134 92.102C358.177 91.1776 356.66 90.7133 354.58 90.7133H347.79V101.189L354.581 101.188ZM364.786 95.9707C364.783 97.054 364.598 98.1287 364.239 99.1476C363.874 100.2 363.283 101.145 362.467 101.988C361.651 102.832 360.59 103.495 359.283 103.986C357.976 104.477 356.408 104.722 354.582 104.722H347.792V116.627H343.576V87.1788H354.582C356.887 87.1788 358.791 87.5784 360.297 88.3788C361.803 89.1792 362.924 90.244 363.67 91.5762C364.416 92.9085 364.786 94.373 364.786 95.9707ZM369.636 87.1788H373.852V105.899C373.852 107.583 374.174 108.978 374.821 110.086C375.436 111.164 376.365 112.018 377.477 112.527C378.6 113.046 379.866 113.304 381.274 113.304C382.707 113.304 383.978 113.045 385.09 112.527C386.202 112.008 387.079 111.193 387.725 110.086C388.371 108.98 388.695 107.583 388.695 105.899V87.1788H392.911V105.817C392.911 107.724 392.596 109.371 391.963 110.76C391.33 112.148 390.458 113.298 389.348 114.209C388.232 115.124 386.959 115.816 385.594 116.25C384.182 116.701 382.71 116.928 381.23 116.922C379.207 116.922 377.308 116.522 375.538 115.722C373.798 114.95 372.312 113.68 371.259 112.063C370.175 110.423 369.635 108.339 369.635 105.816L369.636 87.1788ZM403.623 113.094H412.014C413.813 113.094 415.226 112.68 416.253 111.853C417.28 111.026 417.793 109.841 417.793 108.297C417.793 106.727 417.251 105.529 416.169 104.7C415.087 103.871 413.659 103.459 411.889 103.459H403.623V113.094ZM417.032 95.3404C417.032 93.9108 416.561 92.7814 415.62 91.9544C414.679 91.1274 413.322 90.7133 411.552 90.7133H403.623V99.9264H411.593C413.308 99.9264 414.643 99.5216 415.6 98.7059C416.557 97.8901 417.033 96.7721 417.033 95.3404M399.407 116.629V87.1798H411.931C414.011 87.1798 415.74 87.5303 417.118 88.2323C418.496 88.9343 419.528 89.8597 420.218 91.0075C420.908 92.1553 421.252 93.4342 421.252 94.8362C421.252 96.1561 421.004 97.2629 420.514 98.1607C420.049 99.0283 419.383 99.7651 418.574 100.306C417.742 100.85 416.82 101.235 415.854 101.442V101.735C417.062 101.905 418.123 102.262 419.038 102.808C419.953 103.354 420.667 104.121 421.188 105.101C421.709 106.08 421.967 107.304 421.967 108.761C421.979 110.179 421.583 111.569 420.83 112.758C420.07 113.964 418.981 114.91 417.561 115.599C416.141 116.288 414.42 116.629 412.395 116.629H399.407ZM431.708 87.1788V113.093H445.201V116.629H427.492V87.1788H431.708ZM449.628 116.63H453.844V87.1788H449.628V116.63ZM460.508 87.1788H464.724V99.9264H466.243L477.798 87.1788H483.11L469.996 101.693L483.278 116.63H477.754L466.199 103.461H464.723V116.63H460.507L460.508 87.1788ZM291.203 155.647H295.419V126.197H291.203V155.647Z" fill="#002873"/>
<path d="M325.316 126.196V155.646H321.015L306.297 132.843V155.646H302.081V126.196H306.381L321.1 148.914V126.196H325.316Z" fill="#002873"/>
<path d="M342.1 152.111C345.811 152.111 348.628 151.136 350.555 149.186C352.482 147.236 353.443 144.525 353.443 141.046C353.443 137.513 352.48 134.743 350.555 132.738C348.63 130.733 345.811 129.729 342.1 129.729H336.196V152.11L342.1 152.111ZM342.1 126.197C345.305 126.197 348.068 126.799 350.387 128.005C352.706 129.212 354.505 130.923 355.785 133.137C357.065 135.35 357.703 137.99 357.703 141.047C357.703 144.077 357.063 146.679 355.785 148.851C354.507 151.024 352.706 152.7 350.387 153.88C348.068 155.059 345.305 155.646 342.1 155.646H331.98V126.197H342.1ZM375.961 152.322C377.957 152.322 379.749 151.859 381.339 150.934C382.929 150.008 384.184 148.69 385.112 146.98C386.04 145.269 386.504 143.251 386.504 140.921C386.504 138.565 386.041 136.54 385.112 134.842C384.183 133.144 382.927 131.833 381.339 130.909C379.751 129.984 377.957 129.52 375.961 129.52C373.936 129.52 372.124 129.981 370.523 130.909C368.922 131.836 367.662 133.145 366.749 134.842C365.836 136.539 365.378 138.564 365.378 140.921C365.378 143.251 365.836 145.268 366.749 146.98C367.662 148.691 368.92 150.009 370.523 150.934C372.125 151.858 373.937 152.322 375.961 152.322ZM375.961 155.94C373.879 155.94 371.935 155.576 370.122 154.846C368.309 154.117 366.728 153.086 365.378 151.753C364.018 150.406 362.942 148.788 362.216 146.999C361.456 145.163 361.077 143.136 361.077 140.92C361.077 138.704 361.455 136.685 362.216 134.861C362.949 133.076 364.024 131.46 365.378 130.107C366.739 128.754 368.352 127.695 370.122 126.994C371.935 126.264 373.88 125.9 375.961 125.9C378.013 125.9 379.938 126.264 381.738 126.994C383.5 127.699 385.106 128.757 386.462 130.107C387.816 131.46 388.891 133.076 389.624 134.861C390.384 136.684 390.763 138.704 390.763 140.92C390.763 143.136 390.385 145.163 389.624 146.999C388.898 148.788 387.822 150.406 386.462 151.753C385.102 153.093 383.496 154.144 381.738 154.846C379.938 155.576 378.014 155.94 375.961 155.94Z" fill="#002873"/>
<path d="M418.974 126.196V155.646H414.673L399.954 132.843V155.646H395.738V126.196H400.039L414.758 148.914V126.196H418.974Z" fill="#002873"/>
<path d="M445.371 129.73H429.853V138.943H441.491V142.479H429.853V152.112H445.371V155.646H425.637V126.197H445.371V129.73ZM453.72 147.862C453.896 148.663 454.25 149.412 454.754 150.05C455.275 150.725 455.982 151.271 456.884 151.691C457.786 152.111 458.893 152.321 460.214 152.321C462.182 152.321 463.637 151.866 464.578 150.955C465.519 150.044 465.992 148.971 465.992 147.735C465.992 146.726 465.703 145.892 465.127 145.233C464.551 144.574 463.763 144.012 462.765 143.549C461.767 143.086 460.622 142.674 459.328 142.308L456.018 141.235C454.988 140.882 454.004 140.401 453.087 139.805C452.231 139.246 451.521 138.48 451.021 137.574C450.515 136.663 450.262 135.519 450.262 134.145C450.262 132.436 450.67 130.963 451.485 129.729C452.3 128.495 453.446 127.548 454.922 126.888C456.398 126.228 458.104 125.899 460.045 125.899C461.676 125.899 463.138 126.131 464.43 126.593C465.722 127.055 466.813 127.715 467.699 128.57C468.584 129.426 469.257 130.486 469.66 131.663L465.822 133.052C465.653 132.436 465.302 131.854 464.769 131.306C464.236 130.759 463.56 130.317 462.744 129.981C461.928 129.645 461.015 129.475 460.004 129.475C458.963 129.447 458.027 129.609 457.198 129.959C456.369 130.308 455.708 130.808 455.216 131.454C454.724 132.1 454.478 132.87 454.478 133.767C454.478 134.749 454.758 135.519 455.323 136.08C455.888 136.641 456.636 137.105 457.578 137.469L460.678 138.521L464.136 139.699C465.259 140.119 466.279 140.653 467.193 141.298C468.094 141.93 468.85 142.755 469.407 143.717C469.97 144.685 470.25 145.898 470.25 147.357C470.25 148.927 469.885 150.359 469.154 151.648C468.423 152.937 467.32 153.977 465.844 154.761C464.368 155.545 462.519 155.939 460.298 155.939C458.471 155.939 456.826 155.659 455.364 155.097C453.902 154.536 452.701 153.759 451.758 152.763C450.835 151.803 450.186 150.602 449.881 149.291L453.72 147.862ZM475.563 155.647H479.779V126.197H475.563V155.647Z" fill="#002873"/>
<path d="M488.89 144.623H506.095V148.157H488.89V144.623ZM498.505 129.729H497.029L487.752 155.646H483.45L494.078 126.196H501.374L511.999 155.646H507.698L498.505 129.729Z" fill="#002873"/>
</svg>
