<svg width="154" height="90" viewBox="0 0 154 90" fill="none" xmlns="http://www.w3.org/2000/svg">
<path d="M7.78779 45.948C7.12005 45.0931 6.4709 44.2526 5.81362 43.4209C5.0193 42.4194 4.22092 41.4219 3.41848 40.4285C3.07031 40.0141 2.86109 39.5005 2.82042 38.9605C2.47204 34.792 2.07779 30.6282 1.7294 26.4597C1.46812 23.3341 1.26489 20.2038 1.01464 17.0771C0.830574 14.7808 0.60819 12.4875 0.406708 10.1924C0.26929 8.63215 0.135744 7.06953 0.00606756 5.50459C-0.044448 4.88168 0.220323 4.45768 0.805607 4.24248C2.88855 3.46931 4.97362 2.70313 7.06083 1.94392C8.67384 1.35183 10.295 0.780683 11.897 0.15777C12.3992 -0.0370725 12.8434 -0.0568476 13.3451 0.128689C16.0985 1.14594 18.8582 2.14458 21.6163 3.14845C22.524 3.47881 23.4319 3.80743 24.34 4.1343C25.1768 4.43616 25.434 4.83631 25.3591 5.7163C25.132 8.3964 24.9004 11.0759 24.6815 13.7572C24.3644 17.6354 24.066 21.5154 23.7432 25.393C23.4958 28.364 23.2206 31.332 22.9634 34.3023C22.8292 35.8639 22.7079 37.4273 22.5906 38.9913C22.561 39.388 22.4698 39.7474 22.2172 40.0679C21.3517 41.1574 20.4896 42.2517 19.6311 43.3505C18.9622 44.202 18.2956 45.0553 17.5988 45.9422L19.1329 47.8999C20.1484 49.194 21.1611 50.4905 22.1807 51.7805C22.4111 52.0689 22.5479 52.421 22.5726 52.7896C22.7383 54.7958 22.9063 56.8016 23.0766 58.807C23.2432 60.7357 23.4221 62.6632 23.5899 64.5918C23.6921 65.7684 23.7803 66.9462 23.8802 68.1228C24.0207 69.7804 24.1637 71.4379 24.3093 73.0951C24.4318 74.4636 24.5671 75.8287 24.6931 77.1984C24.882 79.2407 25.0688 81.2829 25.2534 83.3252C25.2882 83.7108 25.3161 84.097 25.3393 84.4832C25.3771 85.1049 25.1692 85.4766 24.5799 85.7046C23.3373 86.185 22.0831 86.6352 20.8347 87.1005C18.338 88.027 15.8349 88.9436 13.3445 89.8864C12.8301 90.0807 12.3684 90.0109 11.8848 89.8283C10.1661 89.1885 8.44391 88.5522 6.72348 87.9142C4.85846 87.2228 2.99365 86.5307 1.12902 85.8378C0.18084 85.4841 -0.00438393 85.1753 0.0838731 84.1813C0.289419 81.8089 0.479288 79.4353 0.692963 77.0641C0.885154 74.9243 1.11451 72.788 1.30321 70.6482C1.58192 67.4848 1.8345 64.3196 2.10682 61.1562C2.34894 58.3394 2.60791 55.5238 2.84539 52.7064C2.87042 52.3593 3.00159 52.0283 3.22106 51.7584C4.72898 49.8449 6.23226 47.9255 7.78779 45.948ZM16.3493 44.3707C16.4211 44.313 16.489 44.2506 16.5525 44.184C17.9461 42.4252 19.3396 40.666 20.7331 38.9064C20.8885 38.7104 20.9787 38.4706 20.9909 38.2206C21.3207 34.2656 21.656 30.3106 21.9966 26.3556C22.1975 23.9838 22.3891 21.6114 22.59 19.2395C22.8792 15.8274 23.1706 12.4136 23.4644 8.99837C23.5364 8.15445 23.605 7.31168 23.6752 6.46543C23.5063 6.38981 23.3849 6.327 23.2618 6.28163C19.8902 5.04705 16.5188 3.81111 13.1477 2.57381C12.8593 2.46215 12.5392 2.46506 12.2529 2.58196C8.99281 3.78591 5.73058 4.98482 2.46623 6.17869C2.21772 6.27 1.97153 6.36829 1.73405 6.45961C1.73405 6.60792 1.7265 6.70447 1.73405 6.79927C1.8316 7.85957 1.93669 8.91869 2.02959 9.97957C2.2154 12.0804 2.39752 14.1823 2.57597 16.2855C2.75442 18.3886 2.92997 20.4906 3.10261 22.5914C3.2501 24.4043 3.37842 26.2189 3.53403 28.0313C3.68499 29.7848 3.86615 31.5361 4.02234 33.2897C4.15357 34.7724 4.27415 36.2563 4.38408 37.7414C4.4015 37.974 4.47466 38.1485 4.65873 38.2823C6.54058 39.6497 8.66165 39.8579 10.6852 38.1602V37.6088C10.6852 34.8205 10.6852 32.032 10.6852 29.2434C10.6852 25.1767 10.6811 21.1106 10.6997 17.0439C10.6997 16.6042 10.5766 16.3274 10.2009 16.0988C9.40893 15.6172 8.639 15.1007 7.86385 14.5924C7.51931 14.3783 7.18579 14.1469 6.86457 13.8991C6.0054 13.2206 5.42047 12.2535 5.21788 11.1765C5.01824 10.1685 4.97437 9.1357 5.08782 8.11431C5.16756 7.30061 5.46594 6.52377 5.95123 5.86636C6.77109 4.76128 8.26159 4.72755 9.15055 5.77621C9.60983 6.31886 9.88796 6.95166 10.0732 7.63041C10.126 7.82525 10.1638 8.02416 10.223 8.28473C9.97041 8.25972 9.8026 8.22657 9.63596 8.23006C9.27538 8.24285 9.12616 8.06313 9.0588 7.72405C9.00611 7.47706 8.91144 7.24098 8.77894 7.02611C8.2703 6.18508 7.30063 6.07516 6.62651 6.78881C6.42313 6.9957 6.26321 7.24133 6.15619 7.51118C5.57555 9.124 5.60633 11.6343 7.73088 13.0441C7.95617 13.1936 8.18843 13.3349 8.4143 13.4815C9.46409 14.1707 10.5133 14.8611 11.5828 15.5648V16.6257C11.5828 21.0212 11.5828 25.4169 11.5828 29.8128C11.5828 32.6592 11.5765 35.5057 11.5828 38.3521C11.5828 38.6726 11.559 38.9587 11.3006 39.1949C9.92279 40.4523 8.36146 41.0206 6.50341 40.5256C6.32342 40.4779 6.13935 40.4453 5.84323 40.3808L9.0199 44.394L12.6901 39.6921L16.3493 44.3707ZM11.3454 87.0882V54.9771L10.5679 54.7991V53.4579H13.3549C13.3549 59.1095 13.3549 64.7221 13.3549 70.3353C13.3549 75.9584 13.3422 81.5815 13.3549 87.2267C13.8624 87.0952 13.8647 87.0952 13.8647 86.6369C13.8647 81.8917 13.8647 77.1466 13.8647 72.4018C13.8647 66.3014 13.8671 60.2008 13.8717 54.1V53.3439C14.2009 53.4067 14.4466 53.4306 14.6776 53.5021C15.5573 53.776 16.2227 54.3617 16.819 55.0347C17.9164 56.2729 18.619 57.7287 19.1346 59.2851C19.7484 61.1312 20.0787 63.0296 20.268 64.9635C20.6089 68.4491 20.6216 71.9167 19.9736 75.3745C19.6369 77.1734 19.1213 78.909 18.3258 80.5544C17.557 82.1457 16.4602 83.4392 14.8362 84.2238C14.7659 84.2641 14.6994 84.3109 14.6376 84.3634V86.8213C14.8425 86.7591 15.008 86.7178 15.1671 86.659C17.0155 85.9777 18.8633 85.2953 20.7105 84.6117C21.4717 84.332 22.2422 84.0766 22.9965 83.78C23.5289 83.57 23.605 83.413 23.5846 82.8494C23.5806 82.7529 23.5707 82.6563 23.562 82.5586C23.2885 79.6505 23.0063 76.7378 22.7433 73.8256C22.4495 70.5685 22.1708 67.3057 21.888 64.0457C21.5901 60.6141 21.2992 57.1773 20.9898 53.7446C20.9684 53.4779 20.8756 53.2219 20.7209 53.0037C19.3855 51.2733 18.0268 49.5593 16.6739 47.8418C16.5833 47.7255 16.4794 47.6243 16.3569 47.4876L12.6872 52.1714L9.04255 47.5114C8.99425 47.5389 8.94891 47.5712 8.90726 47.608C7.47308 49.4343 6.03658 51.2582 4.6146 53.0938C4.4925 53.2635 4.41902 53.4634 4.40208 53.6719C4.19712 56.0438 4.01305 58.4168 3.81099 60.7886C3.54971 63.8549 3.28164 66.9206 3.00681 69.9858C2.713 73.2428 2.40469 76.4999 2.10333 79.757C2.01043 80.7591 1.90824 81.7612 1.83043 82.7651C1.78108 83.3996 1.91347 83.5834 2.49701 83.8219C2.56843 83.851 2.64449 83.8684 2.71649 83.8952C4.80059 84.6629 6.88393 85.4312 8.96648 86.2001C9.74222 86.4869 10.5162 86.7777 11.3454 87.0882ZM14.6138 82.8337C15.3622 82.4621 15.9696 82.0363 16.4718 81.4663C17.6238 80.1577 18.3055 78.5943 18.7421 76.9408C19.386 74.5032 19.7472 72.0144 19.7129 69.4832C19.6851 67.4109 19.5922 65.3404 19.2397 63.2954C18.9378 61.5406 18.536 59.8057 17.7504 58.1899C17.1593 56.9744 16.4039 55.8844 15.2414 55.137C15.0585 55.0207 14.8844 54.8515 14.6144 54.8957L14.6138 82.8337ZM10.2288 45.9236L12.6843 49.0847L15.1747 45.962L12.693 42.7811L10.2288 45.9236Z" fill="#333333"/>
<path d="M104.327 33.0363C105.308 29.9683 106.288 26.8997 107.283 23.7851H110.678C110.601 24.0334 110.532 24.2649 110.459 24.4947C109.095 28.7494 107.732 33.0039 106.368 37.2583C106.193 37.7969 106.193 37.8009 105.655 37.8021C104.784 37.8021 103.913 37.7893 103.042 37.8021C102.71 37.8073 102.519 37.7247 102.406 37.3729C101.674 35.0685 100.914 32.7728 100.177 30.4702C100.083 30.1794 100.068 29.8624 100.019 29.5571C99.9904 29.3295 99.9419 29.1049 99.8737 28.8859C99.5909 29.5303 99.3052 30.1654 99.336 30.8774C99.3807 31.8847 99.0776 32.8322 98.8384 33.7854C98.5423 34.9655 98.1747 36.1282 97.824 37.2938C97.6725 37.7986 97.6562 37.7986 97.1406 37.8009C96.27 37.8052 95.3991 37.8052 94.5277 37.8009C94.0394 37.8009 94.0278 37.8009 93.8716 37.3356C93.291 35.6121 92.7165 33.8866 92.1483 32.1592C91.2804 29.5133 90.4176 26.8655 89.5598 24.2161C89.5197 24.0916 89.4936 23.9625 89.4483 23.7851H92.9995L95.912 32.8421L96.0072 32.8467C96.1918 32.2296 96.384 31.6143 96.5605 30.9948C97.1807 28.8219 97.7938 26.6472 98.4145 24.4743C98.4778 24.2521 98.5725 24.0393 98.6706 23.7764H101.264L104.22 33.0346L104.327 33.0363Z" fill="#333333"/>
<path d="M70.1159 43.8052C72.2341 43.8633 74.1119 44.4967 75.6378 46.0014C77.2119 47.5525 77.8495 49.4742 77.6758 51.6483C77.4146 54.9222 75.6436 57.1237 72.554 58.0409C69.3135 59.0023 66.3551 58.3538 63.9995 55.7476C63.284 54.9508 62.7937 53.9772 62.5792 52.9273C61.5486 48.1272 64.4715 44.7678 68.2782 44.0122C68.8809 43.8947 69.5028 43.8726 70.1159 43.8052ZM70.0253 55.3922C70.8415 55.4304 71.649 55.2111 72.3341 54.7651C73.0191 54.3191 73.5471 53.669 73.8436 52.9063C74.2739 51.8304 74.3081 50.7288 73.9441 49.6167C72.9042 46.4178 69.159 46.1782 67.3829 47.7381C66.3023 48.6873 65.8442 49.8901 65.9005 51.2964C65.9864 53.4758 67.4705 55.4207 70.0253 55.3922Z" fill="#333333"/>
<path d="M54.61 54.2458H51.8229V58.1339H48.4291C48.3176 57.75 48.2828 44.9009 48.3977 44.1495C48.5232 44.128 48.6498 44.1138 48.7769 44.107C50.9624 44.107 53.1485 44.089 55.3335 44.1134C56.4274 44.1262 57.4778 44.3699 58.426 44.9533C59.7109 45.7437 60.4524 46.8929 60.6399 48.3877C60.7677 49.4044 60.673 50.3943 60.2062 51.3307C59.7783 52.188 59.1761 52.8691 58.3127 53.3035C58.1966 53.3617 58.0805 53.428 57.9249 53.5135L61.0255 58.1036C60.8356 58.1345 60.716 58.17 60.5958 58.1705C59.629 58.1775 58.6617 58.167 57.6926 58.1851C57.3889 58.1909 57.2078 58.0967 57.0359 57.8361C56.3072 56.7177 55.5495 55.6184 54.8016 54.5127C54.7401 54.4179 54.6692 54.3272 54.61 54.2458ZM51.8415 51.2987C51.9983 51.3132 52.1289 51.3348 52.2596 51.3354C53.0725 51.3354 53.8854 51.3557 54.6948 51.3208C55.0778 51.2992 55.4561 51.2248 55.8189 51.0998C56.6898 50.809 57.0963 50.1407 57.1712 49.2584C57.2461 48.3761 56.8158 47.5502 56.043 47.2024C55.6569 47.0292 55.2425 46.9277 54.8202 46.9028C53.9527 46.8563 53.0783 46.8842 52.2114 46.8854C52.0999 46.8854 51.9884 46.9063 51.8415 46.9214V51.2987Z" fill="#333333"/>
<path d="M127.587 23.7658H130.986C131.025 24.7667 131.006 25.7642 131.009 26.7611C131.009 27.7429 131.009 28.7246 131.009 29.8204C131.205 29.6564 131.326 29.5744 131.423 29.4714C133.119 27.6669 134.813 25.8598 136.505 24.0502C136.668 23.8757 136.812 23.7227 137.082 23.7256C138.243 23.7396 139.405 23.7367 140.566 23.7431C140.597 23.7431 140.629 23.7786 140.729 23.8385L135.092 29.9268C137.082 32.5075 139.071 35.0881 141.124 37.7525C140.845 37.7729 140.659 37.7961 140.478 37.7967C139.491 37.8014 138.504 37.7874 137.516 37.8084C137.171 37.8159 136.954 37.6967 136.745 37.4233C135.508 35.8117 134.253 34.214 133.002 32.6128C132.944 32.5383 132.875 32.4726 132.781 32.3702C132.223 32.9577 131.667 33.5212 131.144 34.1151C131.035 34.2384 131.012 34.4687 131.01 34.6508C130.998 35.4831 131.01 36.3159 131.01 37.1488V37.7589H127.584C127.567 33.1118 127.576 28.4763 127.587 23.7658Z" fill="#333333"/>
<path d="M93.5824 52.3407V55.307C94.0794 55.4501 94.58 55.3558 95.0723 55.3721C95.5746 55.389 96.0774 55.375 96.582 55.375H98.1497H101.185V58.1668C97.5191 58.1895 93.8594 58.1668 90.1561 58.1738V44.1353H100.915C100.922 44.5657 100.933 45.0013 100.936 45.4375C100.94 45.8737 100.936 46.3239 100.936 46.8369C100.092 46.895 99.286 46.8601 98.4818 46.8665C97.6777 46.8729 96.8561 46.8665 96.0432 46.8665H93.583V49.6316H100.073V52.339L93.5824 52.3407Z" fill="#333333"/>
<path d="M37.1188 54.2146V58.1422H33.7256C33.6025 57.7427 33.5566 45.1407 33.6803 44.1549C33.8043 44.1319 33.9295 44.1166 34.0554 44.109C36.2037 44.1049 38.3475 44.1002 40.4929 44.109C41.4031 44.102 42.3049 44.2836 43.1418 44.6423C45.1374 45.5147 46.175 47.2904 46.0189 49.4825C45.8574 51.7508 44.6253 53.2631 42.4433 53.8732C42.0917 53.9772 41.7325 54.0537 41.3691 54.1017C40.8337 54.1634 40.2932 54.1989 39.7538 54.2099C38.9084 54.2274 38.06 54.2146 37.1188 54.2146ZM37.1647 46.9083V51.3082C38.3591 51.3082 39.5203 51.3827 40.6671 51.2838C41.516 51.2105 42.2128 50.7173 42.4328 49.8245C42.776 48.4286 42.1628 47.113 40.5074 46.931C39.4216 46.8117 38.312 46.9083 37.1647 46.9083Z" fill="#333333"/>
<path d="M50.6135 34.9669C50.3138 35.6817 50.0073 36.4093 49.703 37.141C49.4278 37.8006 49.429 37.8006 48.6921 37.8006H45.9724C46.0357 37.3353 51.4194 24.9922 52.0796 23.7661H55.6069L61.8662 37.725C61.6827 37.7546 61.5573 37.7919 61.4319 37.793C60.5226 37.7988 59.6134 37.7837 58.7029 37.8058C58.3621 37.814 58.1687 37.7034 58.0439 37.383C57.778 36.6984 57.4812 36.0249 57.2008 35.3473C57.1015 35.1065 57.0034 34.9117 56.673 34.9146C54.7197 34.9285 52.7665 34.9227 50.8126 34.9251C50.7452 34.9333 50.6785 34.9473 50.6135 34.9669ZM53.865 27.3756C53.0998 28.9635 52.4134 30.5065 51.8032 32.1496C53.1967 32.1752 54.491 32.1926 55.8723 32.1391L53.865 27.3756Z" fill="#333333"/>
<path d="M89.9744 37.7289C89.7102 37.7574 89.5429 37.7871 89.3757 37.7905C88.5251 37.7969 87.6744 37.7824 86.8244 37.8033C86.4824 37.8121 86.2943 37.687 86.1671 37.3729C85.8838 36.675 85.5679 35.9893 85.277 35.2942C85.1673 35.0331 85.0128 34.9104 84.7109 34.9121C82.7948 34.9237 80.8845 34.9168 78.9707 34.9185C78.8859 34.9242 78.8015 34.935 78.7181 34.9511C78.3918 35.7322 78.0631 36.5133 77.7386 37.2968C77.5313 37.7964 77.5342 37.7993 76.9837 37.8004C76.0187 37.8004 75.0543 37.8004 73.994 37.8004C74.0701 37.5812 74.1101 37.4259 74.1769 37.2799C75.8697 33.4424 77.5632 29.6064 79.2575 25.772C79.4996 25.2241 79.7493 24.6791 79.9711 24.1231C80.0774 23.8573 80.2156 23.7264 80.521 23.7311C81.5661 23.7468 82.6061 23.7369 83.7 23.7369C85.7856 28.3864 87.8661 33.0271 89.9744 37.7289ZM81.9737 27.3999L81.8332 27.3802C81.2044 28.9505 80.5309 30.5064 79.9136 32.1279H83.9781L81.9737 27.3999Z" fill="#333333"/>
<path d="M114.871 34.9161C114.539 35.7274 114.224 36.4946 113.91 37.2623C113.692 37.7951 113.692 37.7968 113.113 37.798C112.168 37.798 111.222 37.798 110.217 37.798C110.256 37.6235 110.264 37.4961 110.314 37.385C111.475 34.7503 112.647 32.1191 113.808 29.4832C114.602 27.6801 115.383 25.8707 116.171 24.0642C116.209 23.9764 116.256 23.8897 116.316 23.7705H119.873L126.121 37.7014C126.013 37.734 125.93 37.7794 125.848 37.7805C124.861 37.7904 123.874 37.7858 122.891 37.8044C122.586 37.8102 122.431 37.659 122.326 37.4071C122.051 36.747 121.756 36.0944 121.504 35.4256C121.361 35.0469 121.155 34.9021 120.734 34.9085C118.917 34.9318 117.1 34.9167 115.283 34.9155C115.168 34.9155 115.053 34.9161 114.871 34.9161ZM118.123 27.3416C117.72 27.9541 116.215 31.6933 116.188 32.1156C116.99 32.2243 119.676 32.1871 120.112 32.0493L118.123 27.3416Z" fill="#333333"/>
<path d="M33.6042 36.2449L34.7655 33.7439C35.6771 34.136 36.5074 34.5582 37.3784 34.849C38.4991 35.2382 39.7069 35.3019 40.8622 35.0328C41.1622 34.9619 41.4442 34.8292 41.6902 34.6431C42.2749 34.1889 42.2383 33.4072 41.6484 32.9564C41.1874 32.6075 40.6358 32.494 40.0923 32.3585C38.8579 32.0514 37.5956 31.849 36.4163 31.3384C36.2421 31.2622 36.0679 31.1761 35.8937 31.0906C33.059 29.6982 33.6066 26.1172 35.4089 24.7888C36.2955 24.1256 37.3401 23.7065 38.4386 23.5732C40.0035 23.3818 41.5654 23.4301 43.0838 23.9146C43.7514 24.1327 44.3938 24.4218 44.9999 24.7771C44.6219 25.6647 44.2613 26.5121 43.8967 27.3735C43.3543 27.1373 42.8759 26.8884 42.3713 26.7174C41.145 26.3033 39.8873 26.1166 38.6134 26.4615C38.2816 26.5601 37.9768 26.7334 37.7221 26.9681C37.1996 27.4433 37.2629 28.0947 37.851 28.4954C38.1077 28.6674 38.3902 28.7972 38.6877 28.8799C39.4681 29.0974 40.2642 29.2602 41.044 29.4784C41.8052 29.6906 42.5751 29.893 43.3085 30.1885C46.304 31.4041 46.045 34.938 44.4308 36.4322C43.5187 37.2773 42.4294 37.7554 41.2176 37.9112C39.2138 38.1689 37.2425 38.009 35.3531 37.2401C34.7458 36.9911 34.1419 36.7335 33.6042 36.2449Z" fill="#333333"/>
<path d="M150.579 23.7656H153.959C153.979 23.8615 153.993 23.9587 154 24.0564C154 26.7668 154.004 29.4771 153.982 32.1869C153.969 33.6648 153.546 35.0118 152.53 36.1256C151.291 37.486 149.728 38.0647 147.913 37.9909C147 37.9531 146.109 37.7972 145.286 37.3656C143.312 36.3298 142.325 34.6646 142.162 32.4725C142.137 32.1444 142.13 31.8146 142.13 31.4837C142.13 29.0836 142.13 26.683 142.13 24.2821V23.7825H145.583C145.583 24.025 145.583 24.2687 145.583 24.5124C145.578 26.8354 145.574 29.1584 145.57 31.4814C145.57 32.1444 145.635 32.7947 145.907 33.41C146.433 34.5983 147.511 35.1729 148.784 34.9327C149.22 34.8507 149.557 34.6151 149.814 34.2441C150.391 33.4129 150.572 32.4748 150.575 31.4913C150.582 29.0712 150.575 26.6516 150.575 24.2315L150.579 23.7656Z" fill="#333333"/>
<path d="M114.038 53.6563C114.861 54.3862 115.582 55.0266 116.352 55.71C116.212 55.8949 116.101 56.0682 115.963 56.2183C114.829 57.4502 113.404 58.1504 111.765 58.3505C109.991 58.5669 108.246 58.3924 106.64 57.5281C104.294 56.266 103.001 54.2908 102.818 51.6287C102.651 49.1935 103.469 47.1456 105.353 45.5596C106.449 44.6359 107.738 44.1416 109.139 43.9456C110.939 43.6937 112.688 43.8682 114.323 44.7255C115.114 45.1381 115.812 45.7097 116.372 46.4046L114.116 48.4438C113.732 48.1326 113.389 47.8232 113.015 47.558C111.414 46.4203 108.384 46.3476 106.919 48.7794C105.883 50.4998 106.243 53.0671 107.719 54.3833C109.263 55.76 111.915 55.8147 113.588 54.2088C113.742 54.0646 113.858 53.8814 114.038 53.6563Z" fill="#333333"/>
<path d="M77.1446 56.1514L79.0154 53.9413L79.3806 54.3129C79.8875 54.83 80.4449 55.2516 81.1754 55.418C82.4029 55.7012 83.3754 55.0329 83.4439 53.7953C83.4648 53.4091 83.4706 53.0217 83.4712 52.6355C83.4712 50.9325 83.4712 49.2299 83.4712 47.5277V46.8787H79.4811V44.1357H86.9464C86.9683 44.282 86.9824 44.4294 86.9887 44.5772C86.9887 47.4597 86.9887 50.3428 86.9667 53.2253C86.9589 53.8049 86.9006 54.3827 86.7925 54.9521C86.483 56.6272 85.1934 58.1388 82.9156 58.3778C81.781 58.4942 80.636 58.4703 79.5479 58.0341C78.5735 57.6456 77.7479 57.068 77.1446 56.1514Z" fill="#333333"/>
<path d="M124.889 58.1467H121.393V46.8976H116.963V44.1105C121.047 44.0954 125.132 44.1105 129.26 44.1036V46.8721H124.889V58.1467Z" fill="#333333"/>
<path d="M63.3573 37.7289V23.7852H66.7738V34.9074H73.6398C73.7891 35.3536 73.8233 37.035 73.713 37.6992C73.2891 37.8225 64.1156 37.8568 63.3573 37.7289Z" fill="#333333"/>
<path d="M76.9733 68.0652V69.9845H76.1023C76.0721 68.7899 76.0733 67.6048 76.1058 66.4291C76.5929 66.2442 76.9129 66.3785 77.1957 66.7513C77.5887 67.2707 78.0225 67.7587 78.4388 68.26L78.5631 68.2304V66.3948H79.4468V69.9427C78.9759 70.1131 78.6594 69.988 78.3778 69.6071C77.9772 69.0656 77.526 68.5602 77.0969 68.0414L76.9733 68.0652Z" fill="#333333"/>
<path d="M132.978 66.4357C133.426 66.2909 133.752 66.324 134.028 66.7085C134.331 67.1307 134.686 67.5157 135.023 67.913C135.139 68.0532 135.274 68.1811 135.493 68.4132V66.3775H136.345C136.398 67.5722 136.374 68.7563 136.366 69.937C135.902 70.108 135.595 69.9952 135.321 69.6416C134.899 69.0948 134.441 68.576 133.91 67.9392C133.89 68.6906 133.873 69.3269 133.856 69.9882H132.985C132.958 68.8104 132.974 67.6263 132.978 66.4357Z" fill="#333333"/>
<path d="M52.9662 68.2648V66.3984H53.8255V69.9893L53.1154 70.0224L51.3868 67.949C51.3665 68.7051 51.3497 69.321 51.3317 69.9782H50.4839V66.4373C50.9125 66.2576 51.2388 66.3425 51.5332 66.7282C51.9495 67.2731 52.4146 67.7803 52.8588 68.3032L52.9662 68.2648Z" fill="#333333"/>
<path d="M118.368 66.3793H119.161C119.253 67.5623 119.19 68.747 119.2 69.9405C118.731 70.1063 118.408 70.0248 118.119 69.6375C117.693 69.0668 117.214 68.5377 116.689 68.0572V69.9917H115.801C115.765 68.7889 115.77 67.6036 115.797 66.4264C116.262 66.2769 116.582 66.356 116.859 66.7224C117.276 67.2744 117.738 67.7914 118.249 68.4039C118.405 67.6891 118.263 67.0603 118.368 66.3793Z" fill="#333333"/>
<path d="M99.3395 68.8548L100.143 70.0221C99.8185 70.0221 99.6083 70.0506 99.4103 70.0128C99.2514 69.9751 99.1046 69.8976 98.9836 69.7877C98.8726 69.679 98.7829 69.5506 98.7188 69.4091C98.5196 69.0188 98.2125 68.9054 97.7462 69.0345C97.7259 69.3137 97.7033 69.6161 97.6777 69.9651H96.8869C96.7615 69.5743 96.7371 67.1396 96.8666 66.3753C97.6016 66.3434 98.3512 66.259 99.0887 66.4434C99.5427 66.5562 99.9056 66.8424 99.9979 67.3257C100.097 67.8399 100.039 68.336 99.5613 68.6791C99.4992 68.7222 99.4417 68.7728 99.3395 68.8548ZM97.7613 67.1192V68.265C98.0691 68.265 98.3373 68.2935 98.5969 68.258C98.7408 68.2401 98.8728 68.1689 98.967 68.0583C99.0611 67.9478 99.1105 67.8059 99.1055 67.6607C99.0979 67.3856 98.9191 67.1652 98.6044 67.1262C98.3286 67.0896 98.0453 67.1192 97.7613 67.1192Z" fill="#333333"/>
<path d="M94.3036 66.2946C95.0433 66.2324 96.0153 66.8925 96.1947 67.7771C96.4229 68.9032 95.7441 69.871 94.602 70.0327C93.6817 70.1647 92.8868 69.8372 92.5018 69.1509C92.1447 68.5111 92.125 67.8522 92.4838 67.2194C92.8613 66.5534 93.4883 66.3004 94.3036 66.2946ZM94.1932 67.0792C93.5737 67.0897 93.1481 67.5654 93.1667 68.2244C93.1847 68.8415 93.7003 69.3498 94.2798 69.3202C94.8714 69.2905 95.3249 68.7752 95.311 68.1436C95.297 67.5119 94.8314 67.0681 94.1932 67.0792Z" fill="#333333"/>
<path d="M102.188 66.3789H103.017V67.7701C103.558 67.8255 104.103 67.8255 104.643 67.7701V66.3905H105.514V69.9902H104.666V68.5635H103.064V69.9756H102.193L102.188 66.3789Z" fill="#333333"/>
<path d="M42.0124 67.7781V66.3909L42.809 66.3403C42.9403 66.7824 42.9647 69.2787 42.8491 69.9749H42.0263V68.5621H40.4853C40.465 69.0222 40.4441 69.4927 40.422 69.9877H39.5999V66.3816H40.4429V67.7775L42.0124 67.7781Z" fill="#333333"/>
<path d="M46.5943 69.246C46.6088 69.4623 46.6239 69.5752 46.6216 69.6868C46.6133 69.7861 46.5989 69.8848 46.5786 69.9823H43.7637V66.3867H46.4927V67.0847H44.6596V67.7989H46.261V68.5032H44.655V69.243L46.5943 69.246Z" fill="#333333"/>
<path d="M84.1865 66.3896H86.9028V67.0754H85.0714C85.0598 67.329 85.0505 67.5302 85.0378 67.8036H86.6932V68.5015H85.0639V69.271H87.005V69.9817H84.2312C84.1076 69.6077 84.0722 67.2179 84.1865 66.3896Z" fill="#333333"/>
<path d="M57.9899 66.377H60.6997V67.0923H58.8968V67.7984H60.4762V68.501H58.9038V69.2624H60.7973C60.8089 69.5258 60.8176 69.7277 60.828 69.9725H57.9899V66.377Z" fill="#333333"/>
<path d="M110.098 70.0051H109.206C109.158 69.9614 109.114 69.9411 109.105 69.9103C108.919 69.2809 108.479 69.1542 107.893 69.2641C107.65 69.31 107.396 69.2996 107.164 69.3135C106.715 70.0696 106.715 70.0696 105.945 69.9643C105.969 69.8533 106.001 69.7441 106.041 69.6375C106.463 68.683 106.885 67.7292 107.318 66.7788C107.396 66.5945 107.543 66.4485 107.728 66.3722C107.913 66.296 108.12 66.2958 108.305 66.3717C108.376 66.3983 108.435 66.4489 108.473 66.5148C109.003 67.6495 109.53 68.7854 110.098 70.0051ZM107.928 67.3244C107.741 67.7862 107.603 68.1241 107.449 68.5039H108.456C108.285 68.1218 108.136 67.7874 107.928 67.3244Z" fill="#333333"/>
<path d="M71.0049 69.1586C71.0206 68.8306 71.0356 68.5089 71.0525 68.1565H71.9037C71.9037 68.5915 71.9275 68.9772 71.8915 69.3569C71.8781 69.4372 71.8478 69.5136 71.8027 69.5812C71.7575 69.6488 71.6985 69.706 71.6296 69.749C71.0461 70.0667 70.362 70.1443 69.7222 69.9653C68.8745 69.7327 68.3438 69.0388 68.3397 68.185C68.3357 67.3312 68.8548 66.6431 69.7013 66.3884C70.5264 66.1406 71.2882 66.325 71.8985 66.938C71.8276 67.0194 71.7609 67.1078 71.6813 67.1834C71.6018 67.259 71.5037 67.3288 71.4224 67.3946C71.1198 67.2881 70.8417 67.1474 70.5514 67.0974C70.0735 67.0148 69.6549 67.1805 69.4255 67.6208C69.2055 68.0442 69.2426 68.4932 69.5277 68.8818C69.8233 69.2889 70.2471 69.3721 70.7169 69.2744C70.816 69.2442 70.9124 69.2055 71.0049 69.1586Z" fill="#333333"/>
<path d="M122.424 69.194C122.445 68.8386 122.464 68.5339 122.486 68.1756H123.302V69.5802C122.566 70.1618 121.379 70.2304 120.606 69.7244C120.297 69.521 120.057 69.2288 119.918 68.8862C119.778 68.5436 119.745 68.1667 119.824 67.8051C119.901 67.4224 120.097 67.0738 120.384 66.8088C120.67 66.5438 121.032 66.3757 121.419 66.3284C122.134 66.2312 122.805 66.3284 123.38 67.0007C123.263 67.0709 123.151 67.1486 123.043 67.2334C122.877 67.3846 122.728 67.3991 122.525 67.2799C122.345 67.1719 122.144 67.1045 121.936 67.0821C121.206 67.024 120.72 67.4992 120.724 68.2314C120.727 68.8543 121.246 69.3243 121.923 69.2964C122.074 69.2923 122.225 69.2376 122.424 69.194Z" fill="#333333"/>
<path d="M73.4929 68.4757V69.2626H75.4294V69.9995H72.6876C72.5639 69.5883 72.5465 67.106 72.6638 66.3848H75.3672V67.0827H73.5092V67.7952H75.135C75.1518 68.0406 75.1646 68.2233 75.182 68.4768L73.4929 68.4757Z" fill="#333333"/>
<path d="M131.331 66.3774H132.09C132.245 66.9009 132.254 68.6399 132.102 69.086C132.064 69.2155 132.005 69.3379 131.928 69.4484C131.452 70.0632 130.79 70.1196 130.095 70.0166C129.45 69.9212 128.992 69.5025 128.883 68.8615C128.811 68.4468 128.825 68.0164 128.812 67.593C128.802 67.2097 128.812 66.8265 128.812 66.399H129.727C129.727 66.5781 129.727 66.7625 129.727 66.9463C129.729 67.4697 129.7 67.9932 129.745 68.5108C129.803 69.1797 130.433 69.5112 130.949 69.1803C131.205 69.0162 131.282 68.7586 131.291 68.4823C131.307 67.9589 131.304 67.4389 131.312 66.9172C131.311 66.7474 131.322 66.5787 131.331 66.3774Z" fill="#333333"/>
<path d="M112.204 70.0067H111.309C110.791 68.8406 110.269 67.6651 109.741 66.4705C110.013 66.2623 110.312 66.3315 110.575 66.3786C110.696 66.4001 110.812 66.606 110.876 66.7526C111.156 67.404 111.416 68.0647 111.722 68.815C111.838 68.6347 111.914 68.5411 111.962 68.434C112.188 67.9228 112.406 67.4081 112.63 66.8951C112.897 66.2815 112.96 66.2553 113.744 66.4507L112.204 70.0067Z" fill="#333333"/>
<path d="M83.5856 66.9708L83.0798 67.4361C82.2878 66.9574 81.6642 66.9574 81.2758 67.4175C81.0948 67.6343 80.9978 67.9092 81.0026 68.1919C81.0074 68.4745 81.1137 68.7459 81.3019 68.9565C81.7345 69.4258 82.3082 69.4084 83.0363 68.8843C83.1309 68.9553 83.2354 69.0309 83.3365 69.1112C83.4375 69.1914 83.5432 69.2816 83.6431 69.3653C82.9353 70.193 81.5057 70.2826 80.6981 69.5846C79.927 68.9187 79.8509 67.6705 80.5303 66.9307C81.2578 66.1368 82.8511 66.0321 83.5856 66.9708Z" fill="#333333"/>
<path d="M91.8824 66.4262V67.0863H90.0876V67.9431L91.6913 68.0076V68.7154H90.0876C90.0586 69.1662 90.0295 69.5611 90.0046 69.9863H89.2445C89.1098 69.6007 89.0662 67.2597 89.1783 66.4332C89.6167 66.3128 91.2971 66.3046 91.8824 66.4262Z" fill="#333333"/>
<path d="M126.415 69.9913H125.58V66.458C125.982 66.3184 127.582 66.2928 128.289 66.4219V67.0931H126.483V67.9435L128.092 68.0144V68.706H126.478C126.456 69.1544 126.437 69.5452 126.415 69.9913Z" fill="#333333"/>
<path d="M57.5126 67.0606L56.3815 67.1136C56.3188 68.0505 56.3815 68.9887 56.3571 69.9699H55.4739V67.1351L54.3063 67.0705V66.3877H57.4835C57.4905 66.5953 57.4998 66.7931 57.5126 67.0606Z" fill="#333333"/>
<path d="M39.0686 66.4101V67.0609L37.9387 67.1354V69.9853H37.0834C36.9505 69.0588 37.0834 68.1189 37.0004 67.1354L35.9024 67.0697V66.4299C36.3344 66.3141 38.2737 66.2967 39.0686 66.4101Z" fill="#333333"/>
<path d="M64.6353 69.9868V66.3843H65.4754V69.2406H67.2609V69.9868H64.6353Z" fill="#333333"/>
<path d="M62.3029 69.2675H64.1249V69.9829H61.4842V66.3949L62.3023 66.3501L62.3029 69.2675Z" fill="#333333"/>
<path d="M48.7856 66.3774H49.5992V69.9875L48.8397 70.0224C48.7089 69.6066 48.674 67.215 48.7856 66.3774Z" fill="#333333"/>
<path d="M114.096 66.3535L114.96 66.3971V69.9642H114.096V66.3535Z" fill="#333333"/>
<path d="M34.6644 68.635C34.1999 68.6466 33.8719 68.35 33.8765 67.9178C33.8803 67.7352 33.9539 67.561 34.0821 67.4311C34.2104 67.3013 34.3835 67.2257 34.5657 67.2199C34.9913 67.2024 35.3589 67.5409 35.3618 67.9521C35.3612 68.3203 35.0535 68.6251 34.6644 68.635Z" fill="#333333"/>
<path d="M137.875 68.6309C137.444 68.6355 137.138 68.3401 137.144 67.9195C137.15 67.499 137.421 67.2268 137.824 67.2111C138.261 67.1948 138.57 67.4723 138.585 67.8951C138.591 67.991 138.576 68.087 138.543 68.177C138.509 68.267 138.457 68.3491 138.391 68.4182C138.324 68.4873 138.244 68.5418 138.155 68.5784C138.066 68.615 137.971 68.6328 137.875 68.6309Z" fill="#333333"/>
<path d="M12.2205 16.1973C13.0914 17.2372 13.7882 18.2847 14.154 19.5026C14.5024 20.6658 14.7735 21.8576 15.0249 23.0476C15.3815 24.7343 15.5928 26.446 15.522 28.1763C15.4058 31.0518 14.8049 33.8098 13.4514 36.3736C13.1193 37.0023 12.7546 37.6119 12.2623 38.1615C12.1357 37.766 12.0875 16.9144 12.2205 16.1973Z" fill="#333333"/>
</svg>
