<svg width="244" height="130" viewBox="0 0 244 130" fill="none" xmlns="http://www.w3.org/2000/svg">
<path fill-rule="evenodd" clip-rule="evenodd" d="M49.9999 58.9557H12.2931C12.3275 58.8683 12.3577 58.7886 12.3832 58.7171C13.2863 56.1903 12.5 46.7891 12.0001 43.9558C9.09494 20.9557 38.7658 1.9209 50.4997 0.95579C67.358 -1.80387 78.5627 1.78546 89.4997 6.95579C100.437 12.1261 104.333 19.2891 105.5 22.9558H101.5V25.4558H57.9999V32.4558H54.4999V44.9558H49.9999V58.9557Z" fill="#F6CB0B"/>
<path fill-rule="evenodd" clip-rule="evenodd" d="M0 80.3345C0.497895 79.3475 1.29221 78.4261 2.04887 77.5586C4.44142 74.8155 11.0743 62.0503 12.293 58.9557H49.9997V58.9558H79.4997V61.9558C70.4579 64.4217 69.8618 68.5768 69.103 73.8657C68.9387 75.0111 68.7667 76.2097 68.4997 77.4558C67.2997 83.0558 74.8333 88.1224 79 89.9557V91.9557L11.0948 91.9557V91.5317C9.00178 88.8514 8.54822 88.3019 6.32789 86.3006H2.04874C1.05587 85.5283 0.398684 84.7887 0 84.0791V80.3345Z" fill="#D81C8D"/>
<path fill-rule="evenodd" clip-rule="evenodd" d="M78.9999 91.9557L11.0947 91.9557V95.4558C11.0947 94.9558 8.59468 96.9558 9.09468 97.9558C9.49468 98.7558 11.9903 101.622 13.157 102.956C13.1159 103.016 13.069 103.083 13.0181 103.155C12.4051 104.028 11.2158 105.72 12.657 107.456C13.6665 108.672 14.6229 109.726 15.3577 110.535C15.9378 111.175 16.3798 111.662 16.6004 111.956V117.956C15.6004 119.956 14.4996 124.956 20.9996 126.456C24.5246 126.812 31.2631 125.575 33.4999 122.956H38.4999C40.0484 121.517 41.5132 120.369 42.8894 119.29C45.6217 117.149 48.0047 115.281 49.9996 111.956V91.9557H78.9999Z" fill="#2CA0D9"/>
<path d="M63.576 56.9557V33.0997H54.168V27.5557H79.788V33.0997H70.38V56.9557H63.576ZM83.6169 39.3997H97.7709V44.6917H83.6169V39.3997ZM84.1209 51.4957H100.123V56.9557H77.3589V27.5557H99.5769V33.0157H84.1209V51.4957ZM99.4466 56.9557V27.5557H112.173C114.805 27.5557 117.073 27.9897 118.977 28.8577C120.881 29.6977 122.351 30.9157 123.387 32.5117C124.423 34.1077 124.941 36.0117 124.941 38.2237C124.941 40.4077 124.423 42.2977 123.387 43.8937C122.351 45.4617 120.881 46.6657 118.977 47.5057C117.073 48.3457 114.805 48.7657 112.173 48.7657H103.227L106.251 45.7837V56.9557H99.4466ZM118.137 56.9557L110.787 46.2877H118.053L125.487 56.9557H118.137ZM106.251 46.5397L103.227 43.3477H111.795C113.895 43.3477 115.463 42.8997 116.499 42.0037C117.535 41.0797 118.053 39.8197 118.053 38.2237C118.053 36.5997 117.535 35.3397 116.499 34.4437C115.463 33.5477 113.895 33.0997 111.795 33.0997H103.227L106.251 29.8657V46.5397ZM124.241 56.9557V27.5557H129.869L147.215 48.7237H144.485V27.5557H151.205V56.9557H145.619L128.231 35.7877H130.961V56.9557H124.241ZM148.207 56.9557L161.311 27.5557H168.031L181.177 56.9557H174.037L163.285 30.9997H165.973L155.179 56.9557H148.207ZM154.759 50.6557L156.565 45.4897H171.685L173.533 50.6557H154.759ZM182.751 56.9557V33.0997H173.343V27.5557H198.963V33.0997H189.555V56.9557H182.751ZM202.792 39.3997H216.946V44.6917H202.792V39.3997ZM203.296 51.4957H219.298V56.9557H196.534V27.5557H218.752V33.0157H203.296V51.4957Z" fill="#F6CB0B"/>
<path d="M79.8337 90.4717C77.5117 90.4717 75.3474 90.099 73.3407 89.3537C71.3627 88.5797 69.6427 87.4904 68.1807 86.0857C66.7187 84.681 65.5721 83.0327 64.7407 81.1407C63.9381 79.2487 63.5367 77.1704 63.5367 74.9057C63.5367 72.641 63.9381 70.5627 64.7407 68.6707C65.5721 66.7787 66.7187 65.1304 68.1807 63.7257C69.6714 62.321 71.4057 61.246 73.3837 60.5007C75.3617 59.7267 77.5261 59.3397 79.8767 59.3397C82.4854 59.3397 84.8361 59.7984 86.9287 60.7157C89.0501 61.6044 90.8274 62.923 92.2607 64.6717L87.7887 68.7997C86.7567 67.6244 85.6101 66.75 84.3487 66.1767C83.0874 65.5747 81.7114 65.2737 80.2207 65.2737C78.8161 65.2737 77.5261 65.503 76.3507 65.9617C75.1754 66.4204 74.1577 67.0797 73.2977 67.9397C72.4377 68.7997 71.7641 69.8174 71.2767 70.9927C70.8181 72.168 70.5887 73.4724 70.5887 74.9057C70.5887 76.339 70.8181 77.6434 71.2767 78.8187C71.7641 79.994 72.4377 81.0117 73.2977 81.8717C74.1577 82.7317 75.1754 83.391 76.3507 83.8497C77.5261 84.3084 78.8161 84.5377 80.2207 84.5377C81.7114 84.5377 83.0874 84.251 84.3487 83.6777C85.6101 83.0757 86.7567 82.1727 87.7887 80.9687L92.2607 85.0967C90.8274 86.8454 89.0501 88.1784 86.9287 89.0957C84.8361 90.013 82.4711 90.4717 79.8337 90.4717ZM90.9449 89.9557V59.8557H103.974C106.669 59.8557 108.991 60.3 110.94 61.1887C112.889 62.0487 114.394 63.2957 115.455 64.9297C116.516 66.5637 117.046 68.513 117.046 70.7777C117.046 73.0137 116.516 74.9487 115.455 76.5827C114.394 78.188 112.889 79.4207 110.94 80.2807C108.991 81.1407 106.669 81.5707 103.974 81.5707H94.8149L97.9109 78.5177V89.9557H90.9449ZM110.08 89.9557L102.555 79.0337H109.994L117.605 89.9557H110.08ZM97.9109 79.2917L94.8149 76.0237H103.587C105.737 76.0237 107.342 75.565 108.403 74.6477C109.464 73.7017 109.994 72.4117 109.994 70.7777C109.994 69.115 109.464 67.825 108.403 66.9077C107.342 65.9904 105.737 65.5317 103.587 65.5317H94.8149L97.9109 62.2207V79.2917ZM122.952 71.9817H137.443V77.3997H122.952V71.9817ZM123.468 84.3657H139.851V89.9557H116.545V59.8557H139.292V65.4457H123.468V84.3657ZM135.418 89.9557L148.834 59.8557H155.714L169.173 89.9557H161.863L150.855 63.3817H153.607L142.556 89.9557H135.418ZM142.126 83.5057L143.975 78.2167H159.455L161.347 83.5057H142.126ZM170.999 89.9557V65.5317H161.367V59.8557H187.597V65.5317H177.965V89.9557H170.999ZM185.325 89.9557V59.8557H192.291V89.9557H185.325ZM202.318 89.9557L189.332 59.8557H196.857L208.209 86.5157H203.78L215.304 59.8557H222.227L209.198 89.9557H202.318ZM225.127 71.9817H239.618V77.3997H225.127V71.9817ZM225.643 84.3657H242.026V89.9557H218.72V59.8557H241.467V65.4457H225.643V84.3657Z" fill="#D81C8D"/>
<path d="M59 129.956C56.088 129.956 53.1693 129.718 50.5 128.956C47.8307 128.158 43.5 125.956 41.5 121.456L47 118.296C48.56 119.405 50.3853 121.624 52.5 122.352C54.6493 123.045 56.316 123.456 58.5 123.456C60.164 123.456 62.2083 122.664 63.2136 122.352C64.2536 122.005 64.6003 121.545 65.0856 120.956C65.571 120.366 66 119.718 66 118.956C66 117.985 65.8483 117.186 65.0856 116.632C64.323 116.042 63.3176 115.574 62.0696 115.228C60.8216 114.846 59.435 114.5 57.9096 114.188C56.419 113.841 54.911 113.425 53.3856 112.94C51.895 112.454 50.5256 111.83 49.2776 111.068C48.0296 110.305 47.007 109.3 46.2096 108.052C45.447 106.804 45.0656 105.209 45.0656 103.268C45.0656 101.188 45.6203 99.2983 46.7296 97.5996C47.8736 95.8663 49.5723 94.497 51.8256 93.4916C54.1136 92.4516 56.9736 91.9316 60.4056 91.9316C62.6936 91.9316 63.5 91.9557 67 93.4557C68.8344 94.6477 70.5 95.9557 72 97.9557L66.2296 101.956C64.5 100.456 65.3689 101.107 64.5 100.456C62.5 98.9557 61.983 98.6916 60.3536 98.6916C58.7243 98.6916 57.3896 98.8823 56.3496 99.2636C55.3096 99.645 54.5643 100.148 54.1136 100.772C53.663 101.361 53.4376 102.054 53.4376 102.852C53.4376 103.788 53.819 104.55 54.5816 105.14C55.3443 105.694 56.3496 106.145 57.5976 106.492C58.8456 106.838 60.215 107.185 61.7056 107.532C63.231 107.878 64.739 108.277 66.2296 108.728C67.755 109.178 69.1416 109.785 70.3896 110.548C71.6376 111.31 72.643 112.316 73.4056 113.564C74.203 114.812 74.6016 116.389 74.6016 118.296C74.6016 120.341 74.0296 122.213 72.8856 123.912C71.7416 125.61 70.0256 126.98 67.7376 128.02C65.4843 129.06 62.4667 129.956 59 129.956Z" fill="#2CA0D9"/>
<path d="M73.0778 128.956V92.5556H88.8338C92.0925 92.5556 94.9005 93.093 97.2578 94.1676C99.6151 95.2076 101.435 96.7156 102.718 98.6916C104 100.668 104.642 103.025 104.642 105.764C104.642 108.468 104 110.808 102.718 112.784C101.435 114.76 99.6151 116.285 97.2578 117.36C94.9005 118.4 92.0925 118.92 88.8338 118.92H77.7578L81.5018 115.124V128.956H73.0778ZM81.5018 116.06L77.7578 112.056H88.3658C90.9658 112.056 92.9071 111.501 94.1898 110.392C95.4725 109.282 96.1138 107.74 96.1138 105.764C96.1138 103.753 95.4725 102.193 94.1898 101.084C92.9071 99.9743 90.9658 99.4196 88.3658 99.4196H77.7578L81.5018 95.4156V116.06Z" fill="#2CA0D9"/>
<path d="M97.7638 128.956L113.988 92.5556H122.308L138.584 128.956H129.744L116.432 96.8196H119.76L106.396 128.956H97.7638ZM105.876 121.156L108.112 114.76L111.5 115.456H124.5L126.832 114.76L129.12 121.156L127 121.956H109L105.876 121.156Z" fill="#2CA0D9"/>
<path d="M150.992 129.58C148.184 129.58 145.567 129.129 143.14 128.228C140.748 127.292 138.668 125.974 136.9 124.276C135.132 122.577 133.746 120.584 132.74 118.296C131.77 116.008 131.284 113.494 131.284 110.756C131.284 108.017 131.77 105.504 132.74 103.216C133.746 100.928 135.132 98.9343 136.9 97.2356C138.703 95.537 140.8 94.237 143.192 93.3356C145.584 92.3996 148.202 91.9316 151.044 91.9316C154.199 91.9316 157.042 92.4863 159.572 93.5956C162.138 94.6703 164.287 96.265 166.02 98.3796L160.612 103.372C159.364 101.95 157.978 100.893 156.452 100.2C154.927 99.4716 153.263 99.1076 151.46 99.1076C149.762 99.1076 148.202 99.385 146.78 99.9396C145.359 100.494 144.128 101.292 143.088 102.332C142.048 103.372 141.234 104.602 140.644 106.024C140.09 107.445 139.812 109.022 139.812 110.756C139.812 112.489 140.09 114.066 140.644 115.488C141.234 116.909 142.048 118.14 143.088 119.18C144.128 120.22 145.359 121.017 146.78 121.572C148.202 122.126 149.762 122.404 151.46 122.404C153.263 122.404 154.927 122.057 156.452 121.364C157.978 120.636 159.364 119.544 160.612 118.088L166.02 123.08C164.287 125.194 162.138 126.806 159.572 127.916C157.042 129.025 154.182 129.58 150.992 129.58Z" fill="#2CA0D9"/>
<path d="M172 107.456H191V113.956H172V107.456ZM172.801 122.196H192.613V128.956H164.429V92.5556H191.937V99.3156H172.801V122.196Z" fill="#2CA0D9"/>
</svg>
